<?xml version="1.0" encoding="utf-8" ?><svg xmlns="http://www.w3.org/2000/svg" xmlns:xlink="http://www.w3.org/1999/xlink" width="1782" height="1782" viewBox="0 0 1782 1782"><path fill="#12BD7C" transform="scale(1.74023 1.74023)" d="M0 0L1024 0L1024 1024L0 1024L0 0Z"/><path fill="#FEFEFE" transform="scale(1.74023 1.74023)" d="M291.51 252.358C375.346 253.088 442.092 274.725 512.147 320.108C584.487 274.168 646.266 252.929 733.041 252.443C732.581 270.21 732.864 289.488 732.872 307.296L732.944 401.733L732.891 616.521L722.049 616.32C644.871 615.132 570.042 642.861 512.274 694.053C446.99 639.006 376.663 614.076 291.489 616.468L291.51 252.358Z"/><path fill="#FEFEFE" transform="scale(1.74023 1.74023)" d="M758.899 314.485C770.908 317.414 783.252 322.095 794.497 327.175C794.136 352.411 794.444 378.437 794.438 403.725L794.351 639.305C794.172 656.977 789.64 670.349 772.4 679.252C764.383 683.393 747.004 682.375 737.497 682.565C730.344 682.734 723.195 683.073 716.058 683.58C639.327 688.416 566.963 720.951 512.418 775.135C509.999 773.094 507.612 770.888 505.245 768.773C475.73 742.396 441.705 719.48 404.658 705.069C371.684 692.014 336.782 684.49 301.357 682.799C293.741 682.423 286.117 682.206 278.492 682.147C263.472 682.014 252.702 683.097 241.223 671.467C235.603 665.755 231.915 658.426 230.677 650.509C229.595 643.674 229.963 629.471 229.965 622.061L229.996 573.22L229.961 400.75L229.893 327.04C241.295 321.608 253.258 317.443 265.567 314.619L265.547 539.172L265.483 601.557C265.468 621.631 260.465 646.837 289.18 646.588C351.237 646.05 413.61 660.64 466.922 692.971C483.418 702.974 497.234 713.464 512.462 725.051C542.448 699 581.53 677.134 618.759 664.448C659.027 650.725 699.611 646.789 741.743 646.388C749.84 646.311 758.335 636.845 758.747 628.761C759.295 618.031 759.01 606.809 758.987 595.895L758.95 530.913L758.899 314.485Z"/></svg>